<?xml version="1.0" encoding="UTF-8"?>
<!DOCTYPE svg PUBLIC "-//W3C//DTD SVG 1.1//EN" "http://www.w3.org/Graphics/SVG/1.1/DTD/svg11.dtd">
<svg width="160mm" height="90mm" viewBox="0 0 16000 9000" version="1.1" xmlns="http://www.w3.org/2000/svg" xmlns:xlink="http://www.w3.org/1999/xlink" stroke-width="28.222" stroke-linejoin="round" xml:space="preserve">
 <path fill="rgb(255,255,255)" stroke="none" d="M 8000,8999 L 0,8999 0,0 15999,0 15999,8999 8000,8999 Z"/>
 <path fill="none" stroke="rgb(179,179,179)" stroke-linejoin="round" d="M 7906,8172 L 1021,8172 1021,379 14791,379 14791,8172 7906,8172 Z"/>
 <path fill="none" stroke="rgb(179,179,179)" stroke-linejoin="round" d="M 14790,8171 L 1021,8171"/>
 <path fill="none" stroke="rgb(179,179,179)" stroke-linejoin="round" d="M 14790,7057 L 1021,7057"/>
 <path fill="none" stroke="rgb(179,179,179)" stroke-linejoin="round" d="M 14790,5944 L 1021,5944"/>
 <path fill="none" stroke="rgb(179,179,179)" stroke-linejoin="round" d="M 14790,4830 L 1021,4830"/>
 <path fill="none" stroke="rgb(179,179,179)" stroke-linejoin="round" d="M 14790,3718 L 1021,3718"/>
 <path fill="none" stroke="rgb(179,179,179)" stroke-linejoin="round" d="M 14790,2604 L 1021,2604"/>
 <path fill="none" stroke="rgb(179,179,179)" stroke-linejoin="round" d="M 14790,1491 L 1021,1491"/>
 <path fill="none" stroke="rgb(179,179,179)" stroke-linejoin="round" d="M 14790,378 L 1021,378"/>
 <path fill="none" stroke="rgb(179,179,179)" stroke-linejoin="round" d="M 1021,8321 L 1021,8171"/>
 <path fill="none" stroke="rgb(179,179,179)" stroke-linejoin="round" d="M 1021,8321 L 1021,8171"/>
 <path fill="none" stroke="rgb(179,179,179)" stroke-linejoin="round" d="M 3775,8321 L 3775,8171"/>
 <path fill="none" stroke="rgb(179,179,179)" stroke-linejoin="round" d="M 3775,8321 L 3775,8171"/>
 <path fill="none" stroke="rgb(179,179,179)" stroke-linejoin="round" d="M 6529,8321 L 6529,8171"/>
 <path fill="none" stroke="rgb(179,179,179)" stroke-linejoin="round" d="M 6529,8321 L 6529,8171"/>
 <path fill="none" stroke="rgb(179,179,179)" stroke-linejoin="round" d="M 9282,8321 L 9282,8171"/>
 <path fill="none" stroke="rgb(179,179,179)" stroke-linejoin="round" d="M 9282,8321 L 9282,8171"/>
 <path fill="none" stroke="rgb(179,179,179)" stroke-linejoin="round" d="M 12036,8321 L 12036,8171"/>
 <path fill="none" stroke="rgb(179,179,179)" stroke-linejoin="round" d="M 12036,8321 L 12036,8171"/>
 <path fill="none" stroke="rgb(179,179,179)" stroke-linejoin="round" d="M 14790,8321 L 14790,8171"/>
 <path fill="none" stroke="rgb(179,179,179)" stroke-linejoin="round" d="M 14790,8321 L 14790,8171"/>
 <path fill="none" stroke="rgb(179,179,179)" stroke-linejoin="round" d="M 1021,8171 L 14790,8171"/>
 <path fill="none" stroke="rgb(179,179,179)" stroke-linejoin="round" d="M 871,8171 L 1021,8171"/>
 <path fill="none" stroke="rgb(179,179,179)" stroke-linejoin="round" d="M 871,8171 L 1021,8171"/>
 <path fill="none" stroke="rgb(179,179,179)" stroke-linejoin="round" d="M 871,7057 L 1021,7057"/>
 <path fill="none" stroke="rgb(179,179,179)" stroke-linejoin="round" d="M 871,7057 L 1021,7057"/>
 <path fill="none" stroke="rgb(179,179,179)" stroke-linejoin="round" d="M 871,5944 L 1021,5944"/>
 <path fill="none" stroke="rgb(179,179,179)" stroke-linejoin="round" d="M 871,5944 L 1021,5944"/>
 <path fill="none" stroke="rgb(179,179,179)" stroke-linejoin="round" d="M 871,4830 L 1021,4830"/>
 <path fill="none" stroke="rgb(179,179,179)" stroke-linejoin="round" d="M 871,4830 L 1021,4830"/>
 <path fill="none" stroke="rgb(179,179,179)" stroke-linejoin="round" d="M 871,3718 L 1021,3718"/>
 <path fill="none" stroke="rgb(179,179,179)" stroke-linejoin="round" d="M 871,3718 L 1021,3718"/>
 <path fill="none" stroke="rgb(179,179,179)" stroke-linejoin="round" d="M 871,2604 L 1021,2604"/>
 <path fill="none" stroke="rgb(179,179,179)" stroke-linejoin="round" d="M 871,2604 L 1021,2604"/>
 <path fill="none" stroke="rgb(179,179,179)" stroke-linejoin="round" d="M 871,1491 L 1021,1491"/>
 <path fill="none" stroke="rgb(179,179,179)" stroke-linejoin="round" d="M 871,1491 L 1021,1491"/>
 <path fill="none" stroke="rgb(179,179,179)" stroke-linejoin="round" d="M 871,378 L 1021,378"/>
 <path fill="none" stroke="rgb(179,179,179)" stroke-linejoin="round" d="M 871,378 L 1021,378"/>
 <path fill="none" stroke="rgb(179,179,179)" stroke-linejoin="round" d="M 1021,8171 L 1021,378"/>
 <path fill="none" stroke="rgb(0,69,134)" stroke-width="80" stroke-linejoin="round" d="M 1021,3718 L 3775,2215 6529,1881 9282,1380 12036,1268 14790,1157"/>
 <path fill="rgb(0,69,134)" stroke="none" d="M 896,3593 L 896,3843 1146,3843 1146,3593 896,3593 Z"/>
 <path fill="none" stroke="rgb(0,69,134)" stroke-linejoin="round" d="M 896,3593 L 896,3843 1146,3843 1146,3593 896,3593 Z"/>
 <path fill="rgb(0,69,134)" stroke="none" d="M 3650,2090 L 3650,2340 3900,2340 3900,2090 3650,2090 Z"/>
 <path fill="none" stroke="rgb(0,69,134)" stroke-linejoin="round" d="M 3650,2090 L 3650,2340 3900,2340 3900,2090 3650,2090 Z"/>
 <path fill="rgb(0,69,134)" stroke="none" d="M 6404,1756 L 6404,2006 6654,2006 6654,1756 6404,1756 Z"/>
 <path fill="none" stroke="rgb(0,69,134)" stroke-linejoin="round" d="M 6404,1756 L 6404,2006 6654,2006 6654,1756 6404,1756 Z"/>
 <path fill="rgb(0,69,134)" stroke="none" d="M 9157,1255 L 9157,1505 9407,1505 9407,1255 9157,1255 Z"/>
 <path fill="none" stroke="rgb(0,69,134)" stroke-linejoin="round" d="M 9157,1255 L 9157,1505 9407,1505 9407,1255 9157,1255 Z"/>
 <path fill="rgb(0,69,134)" stroke="none" d="M 11911,1143 L 11911,1393 12161,1393 12161,1143 11911,1143 Z"/>
 <path fill="none" stroke="rgb(0,69,134)" stroke-linejoin="round" d="M 11911,1143 L 11911,1393 12161,1393 12161,1143 11911,1143 Z"/>
 <path fill="rgb(0,69,134)" stroke="none" d="M 14665,1032 L 14665,1282 14915,1282 14915,1032 14665,1032 Z"/>
 <path fill="none" stroke="rgb(0,69,134)" stroke-linejoin="round" d="M 14665,1032 L 14665,1282 14915,1282 14915,1032 14665,1032 Z"/>
 <text class="TextShape"><tspan class="TextParagraph" font-family="DejaVu Sans, sans-serif" font-size="353px" font-weight="400"><tspan class="TextPosition" x="320" y="8739"><tspan fill="rgb(0,0,0)" stroke="none">2016-11</tspan></tspan></tspan></text>
 <text class="TextShape"><tspan class="TextParagraph" font-family="DejaVu Sans, sans-serif" font-size="353px" font-weight="400"><tspan class="TextPosition" x="3074" y="8739"><tspan fill="rgb(0,0,0)" stroke="none">2017-10</tspan></tspan></tspan></text>
 <text class="TextShape"><tspan class="TextParagraph" font-family="DejaVu Sans, sans-serif" font-size="353px" font-weight="400"><tspan class="TextPosition" x="5828" y="8739"><tspan fill="rgb(0,0,0)" stroke="none">2018-02</tspan></tspan></tspan></text>
 <text class="TextShape"><tspan class="TextParagraph" font-family="DejaVu Sans, sans-serif" font-size="353px" font-weight="400"><tspan class="TextPosition" x="8582" y="8739"><tspan fill="rgb(0,0,0)" stroke="none">2018-07</tspan></tspan></tspan></text>
 <text class="TextShape"><tspan class="TextParagraph" font-family="DejaVu Sans, sans-serif" font-size="353px" font-weight="400"><tspan class="TextPosition" x="11336" y="8739"><tspan fill="rgb(0,0,0)" stroke="none">2018-09</tspan></tspan></tspan></text>
 <text class="TextShape"><tspan class="TextParagraph" font-family="DejaVu Sans, sans-serif" font-size="353px" font-weight="400"><tspan class="TextPosition" x="14090" y="8739"><tspan fill="rgb(0,0,0)" stroke="none">2018-11</tspan></tspan></tspan></text>
 <text class="TextShape"><tspan class="TextParagraph" font-family="DejaVu Sans, sans-serif" font-size="353px" font-weight="400"><tspan class="TextPosition" x="559" y="8292"><tspan fill="rgb(0,0,0)" stroke="none">0</tspan></tspan></tspan></text>
 <text class="TextShape"><tspan class="TextParagraph" font-family="DejaVu Sans, sans-serif" font-size="353px" font-weight="400"><tspan class="TextPosition" x="348" y="7178"><tspan fill="rgb(0,0,0)" stroke="none">20</tspan></tspan></tspan></text>
 <text class="TextShape"><tspan class="TextParagraph" font-family="DejaVu Sans, sans-serif" font-size="353px" font-weight="400"><tspan class="TextPosition" x="348" y="6065"><tspan fill="rgb(0,0,0)" stroke="none">40</tspan></tspan></tspan></text>
 <text class="TextShape"><tspan class="TextParagraph" font-family="DejaVu Sans, sans-serif" font-size="353px" font-weight="400"><tspan class="TextPosition" x="348" y="4951"><tspan fill="rgb(0,0,0)" stroke="none">60</tspan></tspan></tspan></text>
 <text class="TextShape"><tspan class="TextParagraph" font-family="DejaVu Sans, sans-serif" font-size="353px" font-weight="400"><tspan class="TextPosition" x="348" y="3838"><tspan fill="rgb(0,0,0)" stroke="none">80</tspan></tspan></tspan></text>
 <text class="TextShape"><tspan class="TextParagraph" font-family="DejaVu Sans, sans-serif" font-size="353px" font-weight="400"><tspan class="TextPosition" x="136" y="2724"><tspan fill="rgb(0,0,0)" stroke="none">100</tspan></tspan></tspan></text>
 <text class="TextShape"><tspan class="TextParagraph" font-family="DejaVu Sans, sans-serif" font-size="353px" font-weight="400"><tspan class="TextPosition" x="136" y="1611"><tspan fill="rgb(0,0,0)" stroke="none">120</tspan></tspan></tspan></text>
 <text class="TextShape"><tspan class="TextParagraph" font-family="DejaVu Sans, sans-serif" font-size="353px" font-weight="400"><tspan class="TextPosition" x="136" y="498"><tspan fill="rgb(0,0,0)" stroke="none">140</tspan></tspan></tspan></text>
</svg>